<svg width="117" height="8" viewBox="0 0 117 8" fill="none" xmlns="http://www.w3.org/2000/svg">
<path d="M1 1C1 1.52424 1.31992 3.60366 2.74066 4.96025C3.3886 5.57894 4.89052 5.28506 6.4163 5.14843C9.33472 4.88709 11.7387 1.60637 14.8485 1.37249C17.3912 1.18126 20.4487 3.91068 23.373 4.57558C26.4404 5.27305 28.6651 2.92508 30.8841 2.17187C35.3341 0.661386 38.8629 5.38484 41.1211 6.36534C43.133 7.23895 45.3618 6.24707 47.2018 5.12617C49.5378 3.70317 52.7136 3.82424 55.4943 5.02343C57.6437 5.95038 59.863 6.45725 63.0543 6.29043C66.4191 6.11455 67.6497 3.94017 70.1988 3.95639C72.1959 3.9691 73.8523 5.65854 75.6668 6.30409C77.9642 7.12146 81.5023 6.05651 83.3729 4.99378C85.7819 3.62515 90.927 5.53379 93.1908 6.5113C94.9754 7.28192 97.368 6.36589 100.907 4.93469C104.308 4.33537 107.649 4.60275 110.076 4.9974C111.217 5.04775 113.052 5.04775 115.083 3.97228" stroke="#FFCFDF" stroke-width="2" stroke-linecap="round"/>
</svg>
