<svg width="77" height="21" viewBox="0 0 77 21" fill="none" xmlns="http://www.w3.org/2000/svg">
<path d="M38.5 0L40.8574 7.25532H48.4861L42.3143 11.7394L44.6717 18.9947L38.5 14.5106L32.3283 18.9947L34.6857 11.7394L28.5139 7.25532H36.1426L38.5 0Z" fill="white"/>
<path d="M10.5 0L12.8574 7.25532H20.4861L14.3143 11.7394L16.6717 18.9947L10.5 14.5106L4.32825 18.9947L6.68565 11.7394L0.513906 7.25532H8.1426L10.5 0Z" fill="white"/>
<path d="M66.5 0L68.8574 7.25532H76.4861L70.3143 11.7394L72.6717 18.9947L66.5 14.5106L60.3283 18.9947L62.6857 11.7394L56.5139 7.25532H64.1426L66.5 0Z" fill="white"/>
</svg>
