<svg width="156" height="39" viewBox="0 0 156 39" fill="none" xmlns="http://www.w3.org/2000/svg">
<path d="M77.7803 0L82.6073 14.8561H98.228L85.5906 24.0377L90.4177 38.8939L77.7803 29.7123L65.1429 38.8939L69.9699 24.0377L57.3326 14.8561H72.9532L77.7803 0Z" fill="#CDF1FF"/>
<path d="M20.4473 0L25.2743 14.8561H40.895L28.2576 24.0377L33.0846 38.8939L20.4473 29.7123L7.80988 38.8939L12.6369 24.0377L-0.000450134 14.8561H15.6202L20.4473 0Z" fill="#CDF1FF"/>
<path d="M135.114 0L139.941 14.8561H155.562L142.925 24.0377L147.752 38.8939L135.114 29.7123L122.477 38.8939L127.304 24.0377L114.667 14.8561H130.287L135.114 0Z" fill="#CDF1FF"/>
</svg>
